# xmcd CD database file
#
# Track frame offsets:
#	150
#	13093
#	25629
#	39212
#	52506
#	64479
#	78468
#	92624
#	108560
#	123076
#	135759
#	149837
#	160055
#	172748
#	186209
#	198745
#	211323
#	223051
#	234222
#	246725
#	260385
#	273366
#	286489
#
# Disc length: 4027 seconds
#
# Revision: 0
# Processed by: cddbd v1.5.1PL0 Copyright (c) Steve Scherf et al.
# Submitted via: CDex 1.51
#
DISCID=440fb917
DTITLE=Kenny Clarke - Classics 1946-1948
DYEAR=1946
DGENRE=Jazz
TTITLE0=Epistrophy
TTITLE1=52nd Street Theme
TTITLE2=Opp Bop Sh-Bam
TTITLE3=Rue Chaptal
TTITLE4=Confirmation
TTITLE5=A La Colette (Cheryl)
TTITLE6=Jumpin' There (Listen Here)
TTITLE7=Jay Mac
TTITLE8=Lover Man
TTITLE9=The Small Bag
TTITLE10=I'm Sorry
TTITLE11=Hard to Get
TTITLE12=Ralph Goes
TTITLE13=I've Got Be-Bop
TTITLE14=All The Things You Are
TTITLE15=Algerian Cynicism
TTITLE16=Laurenzology
TTITLE17=DoriaI
TTITLE18='ll Tell You In Any Minute
TTITLE19=Working Eyes
TTITLE20=Stuffy
TTITLE21=The Man I Love
TTITLE22=I Surrender, Dear
EXTD=YEAR: 1946
EXTT0=
EXTT1=
EXTT2=
EXTT3=
EXTT4=
EXTT5=
EXTT6=
EXTT7=
EXTT8=
EXTT9=
EXTT10=
EXTT11=
EXTT12=
EXTT13=
EXTT14=
EXTT15=
EXTT16=
EXTT17=
EXTT18=
EXTT19=
EXTT20=
EXTT21=
EXTT22=
PLAYORDER=
